<svg width="23" height="23" viewBox="0 0 23 23" fill="none" xmlns="http://www.w3.org/2000/svg">
<path d="M19.6367 3.36603C15.1523 -1.11839 7.85327 -1.11839 3.36886 3.36603C1.1966 5.53915 0 8.42779 0 11.4999C0 14.5721 1.1966 17.4607 3.36886 19.633C5.61151 21.8756 8.55716 22.9965 11.5028 22.9965C14.4484 22.9965 17.3941 21.8756 19.6367 19.633C24.1211 15.1486 24.1211 7.8513 19.6367 3.36603ZM18.3768 18.3731C14.5865 22.1634 8.41902 22.1634 4.6287 18.3731C2.79327 16.5377 1.78198 14.0963 1.78198 11.4999C1.78198 8.90356 2.79327 6.46221 4.6287 4.62587C8.41902 0.835553 14.5865 0.836452 18.3768 4.62587C22.1662 8.4162 22.1662 14.5837 18.3768 18.3731Z" fill="#BA282B"/>
<path d="M15.3412 13.9631L12.8187 11.4442L15.3412 8.92539C15.6886 8.57792 15.6886 8.01392 15.3421 7.6655C14.9937 7.31623 14.4297 7.31713 14.0813 7.6646L11.5571 10.1852L9.03296 7.6646C8.68458 7.31713 8.12058 7.31623 7.77221 7.6655C7.42474 8.01387 7.42474 8.57787 7.77311 8.92539L10.2955 11.4442L7.77311 13.9631C7.42474 14.3105 7.42474 14.8745 7.77221 15.223C7.94597 15.3976 8.17494 15.484 8.40306 15.484C8.63117 15.484 8.85924 15.3967 9.033 15.2238L11.5572 12.7032L14.0814 15.2238C14.2551 15.3976 14.4832 15.484 14.7113 15.484C14.9394 15.484 15.1684 15.3967 15.3422 15.223C15.6895 14.8745 15.6895 14.3105 15.3412 13.9631Z" fill="#BA282B"/>
</svg>
