<svg width="31" height="31" viewBox="0 0 31 31" fill="none" xmlns="http://www.w3.org/2000/svg">
<path d="M30.1124 4.23793C29.6564 3.78111 28.9164 3.78032 28.4604 4.236L14.4442 18.2152L9.38723 12.7228C8.95026 12.2485 8.21147 12.2177 7.73635 12.6546C7.26161 13.0916 7.23121 13.8307 7.66818 14.3055L13.5489 20.692C13.7642 20.9261 14.0656 21.062 14.3834 21.0686C14.392 21.069 14.4002 21.069 14.4084 21.069C14.7172 21.069 15.0143 20.9463 15.2332 20.7282L30.1101 5.89032C30.5673 5.4347 30.5681 4.69476 30.1124 4.23793Z" fill="#6DE150"/>
<path d="M29.8316 14.3316C29.1863 14.3316 28.6633 14.8546 28.6633 15.5C28.6633 22.7585 22.7585 28.6633 15.5 28.6633C8.24188 28.6633 2.33669 22.7585 2.33669 15.5C2.33669 8.24188 8.24188 2.33669 15.5 2.33669C16.1453 2.33669 16.6684 1.81368 16.6684 1.16837C16.6684 0.523004 16.1453 0 15.5 0C6.9532 0 0 6.9532 0 15.5C0 24.0464 6.9532 31 15.5 31C24.0464 31 31 24.0464 31 15.5C31 14.8547 30.477 14.3316 29.8316 14.3316Z" fill="#6DE150"/>
</svg>
