<svg width="61" height="61" viewBox="0 0 61 61" fill="none" xmlns="http://www.w3.org/2000/svg">
<path d="M52.099 60.9885H8.90063C2.29261 60.9885 -2.00526 54.0344 0.9499 48.124L22.549 4.92543C25.8249 -1.62635 35.1746 -1.62635 38.4505 4.92543L60.0496 48.1239C63.005 54.0344 58.7071 60.9885 52.099 60.9885Z" fill="url(#paint0_linear)"/>
<path d="M52.099 60.9885H8.90063C2.29261 60.9885 -2.00526 54.0344 0.9499 48.124L22.549 4.92543C25.8249 -1.62635 35.1746 -1.62635 38.4505 4.92543L60.0496 48.1239C63.005 54.0344 58.7071 60.9885 52.099 60.9885Z" fill="url(#paint1_linear)"/>
<path d="M57.9108 49.1937L36.3117 5.99518C35.1872 3.74628 33.0148 2.40369 30.5006 2.40369C27.9864 2.40369 25.814 3.74628 24.6895 5.99518L3.09029 49.1937C2.07593 51.2224 2.1822 53.5855 3.37468 55.5149C4.56716 57.4444 6.63329 58.5964 8.90137 58.5964H52.0999C54.3679 58.5964 56.4341 57.4444 57.6265 55.5149C58.8189 53.5855 58.9253 51.2225 57.9108 49.1937ZM55.5917 54.2573C54.8383 55.4763 53.533 56.2041 52.1 56.2041H8.90137C7.46835 56.2041 6.16293 55.4763 5.4096 54.2573C4.65615 53.0383 4.58896 51.5453 5.22994 50.2634L26.8291 7.06506C27.5501 5.62299 28.8882 4.79591 30.5005 4.79591C32.1128 4.79591 33.451 5.62299 34.1719 7.06506L55.7711 50.2635C56.4122 51.5453 56.3451 53.0383 55.5917 54.2573Z" fill="url(#paint2_linear)"/>
<path d="M52.098 60.9879H48.6964L29.0341 41.3257C28.4528 41.041 28.1609 40.5495 28.1609 39.8474C28.1609 37.1945 28.052 35.3023 27.8344 29.2979C27.6167 23.2948 27.5078 22.0617 27.5078 19.4088C27.5078 18.5619 27.796 17.9089 28.3725 17.4485C28.9479 16.9868 29.6942 16.7571 30.6104 16.7571C31.5265 16.7571 32.1999 16.9963 32.6281 17.476C32.7107 17.5669 50.635 35.4853 56.8222 41.6701L60.0493 48.1241C63.0049 54.0339 58.7063 60.9879 52.098 60.9879Z" fill="url(#paint3_linear)"/>
<path d="M47.2967 60.9879H38.4003L28.2014 50.789C27.5233 50.1909 27.1836 49.4937 27.1836 48.6959C27.1836 47.8646 27.5233 47.1577 28.2014 46.5765C28.8796 45.9952 29.7037 45.7045 30.6725 45.7045C31.5253 45.7045 32.2633 45.9952 32.8852 46.5765L47.2967 60.9879Z" fill="url(#paint4_linear)"/>
<path d="M27.1826 48.6953C27.1826 47.8641 27.5217 47.1581 28.1997 46.5769C28.8779 45.9955 29.7021 45.7041 30.6708 45.7041C31.524 45.7041 32.2615 45.9955 32.8834 46.5769C33.5054 47.1581 33.8175 47.8641 33.8175 48.6953C33.8175 49.4931 33.5057 50.1909 32.8834 50.789C32.2615 51.3873 31.5239 51.6864 30.6708 51.6864C29.702 51.6864 28.8779 51.3872 28.1997 50.789C27.5217 50.1909 27.1826 49.4932 27.1826 48.6953ZM27.5089 19.4089C27.5089 18.5624 27.7969 17.9086 28.3732 17.448C28.9492 16.9874 29.6953 16.7568 30.6114 16.7568C31.5275 16.7568 32.2005 16.9967 32.6296 17.4759C33.0587 17.955 33.2737 18.5992 33.2737 19.4089C33.2737 22.062 33.2277 23.2944 33.1378 29.2985C33.0469 35.3029 33.0019 37.1948 33.0019 39.8469C33.0019 40.4003 32.7428 40.8335 32.2253 41.1461C31.7069 41.4589 31.169 41.6154 30.6115 41.6154C28.9784 41.6154 28.1617 41.0264 28.1617 39.8469C28.1617 37.1948 28.0528 35.3029 27.8354 29.2985C27.6176 23.2943 27.5089 22.0619 27.5089 19.4089Z" fill="white"/>
<defs>
<linearGradient id="paint0_linear" x1="15.2989" y1="26.0915" x2="84.8829" y2="95.6755" gradientUnits="userSpaceOnUse">
<stop stop-color="#FFB92D"/>
<stop offset="1" stop-color="#F59500"/>
</linearGradient>
<linearGradient id="paint1_linear" x1="24.5362" y1="35.3285" x2="45.5114" y2="56.3025" gradientUnits="userSpaceOnUse">
<stop stop-color="#FFB92D"/>
<stop offset="1" stop-color="#F59500"/>
</linearGradient>
<linearGradient id="paint2_linear" x1="2.3984" y1="30.5006" x2="58.6017" y2="30.5006" gradientUnits="userSpaceOnUse">
<stop stop-color="#FFF465"/>
<stop offset="1" stop-color="#FFE600"/>
</linearGradient>
<linearGradient id="paint3_linear" x1="50.4152" y1="49.0502" x2="16.4365" y2="15.0715" gradientUnits="userSpaceOnUse">
<stop stop-color="#BE3F45" stop-opacity="0"/>
<stop offset="1" stop-color="#BE3F45"/>
</linearGradient>
<linearGradient id="paint4_linear" x1="39.4151" y1="57.561" x2="28.3313" y2="46.476" gradientUnits="userSpaceOnUse">
<stop stop-color="#BE3F45" stop-opacity="0"/>
<stop offset="1" stop-color="#BE3F45"/>
</linearGradient>
</defs>
</svg>
