<svg width="32" height="32" viewBox="0 0 32 32" fill="none" xmlns="http://www.w3.org/2000/svg">
<g clip-path="url(#clip0)">
<path d="M0.412285 25.3997L13.5382 3.6314C14.0553 2.77384 14.9986 2.24109 16 2.24109C17.0015 2.24109 17.9448 2.77384 18.462 3.63146L31.5878 25.3997C32.1222 26.286 32.138 27.3965 31.6291 28.2978C31.12 29.199 30.1609 29.7589 29.1259 29.7589H2.87416C1.83916 29.7589 0.879972 29.199 0.370911 28.2977C-0.138027 27.3964 -0.122215 26.2859 0.412285 25.3997ZM2.18504 27.2733C2.32516 27.5213 2.58922 27.6755 2.87416 27.6755H29.1259C29.4108 27.6755 29.6749 27.5214 29.815 27.2733C29.9551 27.0252 29.9507 26.7195 29.8037 26.4755L16.6777 4.70728C16.5353 4.47121 16.2757 4.32453 16 4.32453C15.7243 4.32453 15.4647 4.47121 15.3223 4.70728L2.19647 26.4755C2.04929 26.7195 2.04491 27.0252 2.18504 27.2733Z" fill="white"/>
<path d="M15.9894 10.8129C16.7819 10.8129 17.4004 11.2381 17.4004 11.992C17.4004 14.2921 17.1298 17.5974 17.1298 19.8976C17.1298 20.4967 16.6078 20.748 15.9893 20.748C15.5255 20.748 14.8683 20.4967 14.8683 19.8976C14.8683 17.5974 14.5977 14.2922 14.5977 11.992C14.5977 11.2382 15.2355 10.8129 15.9894 10.8129Z" fill="white"/>
<path d="M15.9696 22.0817C16.8201 22.0817 17.458 22.7582 17.458 23.57C17.458 24.3625 16.8201 25.0584 15.9696 25.0584C15.1771 25.0584 14.5006 24.3625 14.5006 23.57C14.5006 22.7582 15.1772 22.0817 15.9696 22.0817Z" fill="white"/>
</g>
<defs>
<clipPath id="clip0">
<rect width="32" height="32" fill="white" transform="matrix(-1 0 0 1 32 0)"/>
</clipPath>
</defs>
</svg>
