<svg width="27" height="27" viewBox="0 0 27 27" fill="none" xmlns="http://www.w3.org/2000/svg">
<g clip-path="url(#clip0)">
<path d="M0.347866 21.4309L11.4228 3.06398C11.8591 2.34041 12.6551 1.8909 13.5 1.8909C14.345 1.8909 15.1409 2.34041 15.5773 3.06403L26.6522 21.4309C27.1031 22.1788 27.1165 23.1158 26.6871 23.8762C26.2575 24.6367 25.4483 25.1091 24.575 25.1091H2.42507C1.55179 25.1091 0.742477 24.6367 0.312956 23.8762C-0.116461 23.1157 -0.103119 22.1787 0.347866 21.4309ZM1.84362 23.0118C1.96185 23.2211 2.18466 23.3512 2.42507 23.3512H24.575C24.8154 23.3512 25.0382 23.2212 25.1564 23.0119C25.2746 22.8025 25.2709 22.5445 25.1468 22.3387L14.0718 3.97175C13.9517 3.77257 13.7326 3.6488 13.5 3.6488C13.2674 3.6488 13.0483 3.77257 12.9282 3.97175L1.85328 22.3387C1.72909 22.5446 1.72539 22.8025 1.84362 23.0118Z" fill="#BA282B"/>
<path d="M13.4911 9.12331C14.1598 9.12331 14.6816 9.48211 14.6816 10.1182C14.6816 12.0589 14.4534 14.8477 14.4534 16.7885C14.4533 17.2941 14.0129 17.5061 13.4911 17.5061C13.0997 17.5061 12.5452 17.2941 12.5452 16.7885C12.5452 14.8478 12.3169 12.059 12.3169 10.1182C12.3169 9.48216 12.855 9.12331 13.4911 9.12331Z" fill="#BA282B"/>
<path d="M13.4747 18.6314C14.1922 18.6314 14.7305 19.2022 14.7305 19.8872C14.7305 20.5559 14.1923 21.143 13.4747 21.143C12.806 21.143 12.2351 20.5559 12.2351 19.8872C12.2351 19.2022 12.806 18.6314 13.4747 18.6314Z" fill="#BA282B"/>
</g>
<defs>
<clipPath id="clip0">
<rect width="27" height="27" fill="white" transform="matrix(-1 0 0 1 27 0)"/>
</clipPath>
</defs>
</svg>
