<svg width="29" height="29" viewBox="0 0 29 29" fill="none" xmlns="http://www.w3.org/2000/svg">
<g clip-path="url(#clip0)">
<path d="M11.177 9.66674H2.11451C0.948509 9.66674 0 8.71823 0 7.55201V2.11451C0 0.948509 0.948509 0 2.11451 0H11.177C12.3432 0 13.2917 0.948509 13.2917 2.11451V7.55201C13.2917 8.71823 12.3432 9.66674 11.177 9.66674ZM2.11451 1.8125C1.94791 1.8125 1.8125 1.94791 1.8125 2.11451V7.55201C1.8125 7.71883 1.94791 7.85424 2.11451 7.85424H11.177C11.3438 7.85424 11.4792 7.71883 11.4792 7.55201V2.11451C11.4792 1.94791 11.3438 1.8125 11.177 1.8125H2.11451Z" fill="#9B9B9B"/>
<path d="M11.177 29H2.11451C0.948509 29 0 28.0515 0 26.8855V14.198C0 13.0318 0.948509 12.0833 2.11451 12.0833H11.177C12.3432 12.0833 13.2917 13.0318 13.2917 14.198V26.8855C13.2917 28.0515 12.3432 29 11.177 29ZM2.11451 13.8958C1.94791 13.8958 1.8125 14.0312 1.8125 14.198V26.8855C1.8125 27.0521 1.94791 27.1875 2.11451 27.1875H11.177C11.3438 27.1875 11.4792 27.0521 11.4792 26.8855V14.198C11.4792 14.0312 11.3438 13.8958 11.177 13.8958H2.11451Z" fill="#9B9B9B"/>
<path d="M26.8852 29H17.8227C16.6565 29 15.708 28.0515 15.708 26.8855V21.448C15.708 20.2818 16.6565 19.3333 17.8227 19.3333H26.8852C28.0512 19.3333 28.9997 20.2818 28.9997 21.448V26.8855C28.9997 28.0515 28.0512 29 26.8852 29ZM17.8227 21.1458C17.6559 21.1458 17.5205 21.2812 17.5205 21.448V26.8855C17.5205 27.0521 17.6559 27.1875 17.8227 27.1875H26.8852C27.0518 27.1875 27.1872 27.0521 27.1872 26.8855V21.448C27.1872 21.2812 27.0518 21.1458 26.8852 21.1458H17.8227Z" fill="#9B9B9B"/>
<path d="M26.8852 16.9167H17.8227C16.6565 16.9167 15.708 15.9682 15.708 14.802V2.11451C15.708 0.948509 16.6565 0 17.8227 0H26.8852C28.0512 0 28.9997 0.948509 28.9997 2.11451V14.802C28.9997 15.9682 28.0512 16.9167 26.8852 16.9167ZM17.8227 1.8125C17.6559 1.8125 17.5205 1.94791 17.5205 2.11451V14.802C17.5205 14.9688 17.6559 15.1042 17.8227 15.1042H26.8852C27.0518 15.1042 27.1872 14.9688 27.1872 14.802V2.11451C27.1872 1.94791 27.0518 1.8125 26.8852 1.8125H17.8227Z" fill="#9B9B9B"/>
</g>
<defs>
<clipPath id="clip0">
<rect width="29" height="29" fill="white"/>
</clipPath>
</defs>
</svg>
