<svg width="12" height="17" viewBox="0 0 12 17" fill="none" xmlns="http://www.w3.org/2000/svg">
<path d="M11.1353 3.61269L10.8334 2.54296C10.7184 2.13553 10.3969 1.86178 10.0336 1.86178H7.4957V0.885262C7.4957 0.39719 7.15993 0 6.74705 0H4.42295C4.01017 0 3.6743 0.39719 3.6743 0.885262V1.86178H1.1365C0.773081 1.86178 0.451605 2.13553 0.33662 2.54296L0.0346561 3.61269C-0.034105 3.85624 0.000745084 4.12592 0.127729 4.3342C0.254712 4.54247 0.460161 4.66689 0.6774 4.66689H0.993033L1.68774 14.8194C1.73939 15.5727 2.28029 16.1628 2.91939 16.1628H8.39158C9.03057 16.1628 9.57158 15.5727 9.62312 14.8192L10.3178 4.66689H10.4926C10.7098 4.66689 10.9153 4.54247 11.0423 4.33432C11.1693 4.12604 11.2041 3.85624 11.1353 3.61269ZM4.47564 0.947042H6.69436V1.86178H4.47564V0.947042ZM8.82439 14.7429C8.80623 15.0081 8.61612 15.2158 8.39158 15.2158H2.91939C2.69484 15.2158 2.50473 15.0081 2.48658 14.7429L1.79698 4.66689H9.51388L8.82439 14.7429ZM0.84925 3.71985L1.09685 2.84261C1.10249 2.82238 1.11845 2.80882 1.1365 2.80882H10.0336C10.0517 2.80882 10.0675 2.82238 10.0733 2.84261L10.3209 3.71985H0.84925Z" fill="#5A5A5A"/>
<path d="M7.54579 14.7093C7.55289 14.7098 7.55988 14.7099 7.56697 14.7099C7.77868 14.7099 7.95565 14.5139 7.96671 14.2611L8.34297 5.72513C8.35445 5.46395 8.18458 5.24112 7.96368 5.22756C7.74216 5.21362 7.55424 5.41462 7.54266 5.6758L7.16651 14.2118C7.15503 14.4729 7.32479 14.6958 7.54579 14.7093Z" fill="#5A5A5A"/>
<path d="M3.21995 14.2622C3.23163 14.5146 3.40839 14.7099 3.61968 14.7099C3.62698 14.7099 3.63449 14.7097 3.6419 14.7092C3.86279 14.695 4.03214 14.4718 4.02014 14.2106L3.62604 5.67469C3.61404 5.41352 3.42519 5.21338 3.20419 5.22768C2.9833 5.24186 2.81396 5.46506 2.82596 5.72624L3.21995 14.2622Z" fill="#5A5A5A"/>
<path d="M5.58886 14.71C5.81017 14.71 5.98953 14.498 5.98953 14.2365V5.7005C5.98953 5.43895 5.81017 5.22698 5.58886 5.22698C5.36755 5.22698 5.18819 5.43895 5.18819 5.7005V14.2365C5.18819 14.498 5.36755 14.71 5.58886 14.71Z" fill="#5A5A5A"/>
</svg>
