<svg width="21" height="21" viewBox="0 0 21 21" fill="none" xmlns="http://www.w3.org/2000/svg">
<path d="M10.5 0C4.70135 0 0 4.70135 0 10.5C0 16.2993 4.70135 21 10.5 21C16.2993 21 21 16.3 21 10.5C21 4.70135 16.2992 0 10.5 0ZM10.5 19.0312C5.78815 19.0312 1.96878 15.2118 1.96878 10.5C1.96878 5.78815 5.78815 1.96878 10.5 1.96878C15.2118 1.96878 19.0312 5.78815 19.0312 10.5C19.0312 15.2118 15.2118 19.0312 10.5 19.0312ZM10.5007 4.60489C9.74862 4.60489 9.1796 4.99735 9.1796 5.63127V11.4456C9.1796 12.0802 9.74855 12.4714 10.5007 12.4714C11.2343 12.4714 11.8217 12.0638 11.8217 11.4456V5.63127C11.8217 5.0124 11.2343 4.60489 10.5007 4.60489ZM10.5007 13.7813C9.77813 13.7813 9.1901 14.3693 9.1901 15.0924C9.1901 15.8143 9.77813 16.4023 10.5007 16.4023C11.2232 16.4023 11.8106 15.8143 11.8106 15.0924C11.8105 14.3692 11.2232 13.7813 10.5007 13.7813Z" fill="#BA282B"/>
</svg>
