<svg width="12" height="12" viewBox="0 0 12 12" fill="none" xmlns="http://www.w3.org/2000/svg">
<path d="M10.7317 9.73443L7.27426 6.28688L10.7317 2.83932C11.208 2.36373 11.208 1.59178 10.733 1.1149C10.2554 0.636848 9.48238 0.638078 9.00487 1.11367L5.54501 4.56368L2.08514 1.11367C1.60763 0.638078 0.834565 0.636848 0.357055 1.1149C-0.119223 1.59172 -0.119224 2.36367 0.358286 2.83932L3.81575 6.28688L0.358286 9.73443C-0.119224 10.21 -0.119223 10.982 0.357055 11.4589C0.595225 11.6978 0.909069 11.8161 1.22174 11.8161C1.53442 11.8161 1.84703 11.6966 2.0852 11.46L5.54507 8.01001L9.00493 11.46C9.2431 11.6978 9.55572 11.8161 9.86839 11.8161C10.1811 11.8161 10.4949 11.6966 10.7331 11.4589C11.2092 10.982 11.2092 10.21 10.7317 9.73443Z" fill="#8C8C8C"/>
</svg>
