<svg width="30" height="30" viewBox="0 0 30 30" fill="none" xmlns="http://www.w3.org/2000/svg">
<path d="M15 0C6.729 0 0 6.72909 0 15.0001C0 23.2711 6.729 30 15 30C23.271 30 30 23.2711 30 15.0001C30 6.72909 23.271 0 15 0ZM15 27.2727C8.23273 27.2727 2.72727 21.7673 2.72727 15.0001C2.72727 8.23291 8.23273 2.72727 15 2.72727C21.7673 2.72727 27.2727 8.23291 27.2727 15.0001C27.2727 21.7673 21.7672 27.2727 15 27.2727Z" fill="white"/>
<path d="M14.9995 6.36363C13.9971 6.36363 13.1816 7.17963 13.1816 8.18263C13.1816 9.18472 13.9971 10 14.9995 10C16.0018 10 16.8173 9.18472 16.8173 8.18263C16.8173 7.17963 16.0018 6.36363 14.9995 6.36363Z" fill="white"/>
<path d="M15.0004 12.7273C14.2473 12.7273 13.6367 13.3378 13.6367 14.0909V22.2727C13.6367 23.0258 14.2473 23.6364 15.0004 23.6364C15.7534 23.6364 16.364 23.0258 16.364 22.2727V14.0909C16.364 13.3378 15.7534 12.7273 15.0004 12.7273Z" fill="white"/>
</svg>
