<svg width="21" height="21" viewBox="0 0 21 21" fill="none" xmlns="http://www.w3.org/2000/svg">
<path d="M10.6495 10.1158C9.25973 10.1158 8.0565 9.61734 7.07309 8.63393C6.09 7.65068 5.5914 6.44761 5.5914 5.05773C5.5914 3.66833 6.08984 2.4651 7.07325 1.48153C8.05666 0.498435 9.25989 0 10.6495 0C12.0393 0 13.2424 0.498435 14.2257 1.48169C15.2089 2.46494 15.7075 3.66817 15.7075 5.05773C15.7075 6.44761 15.2089 7.65084 14.2257 8.63409C13.2421 9.61718 12.0389 10.1158 10.6495 10.1158ZM13.3554 2.35182C12.6009 1.59736 11.7159 1.23063 10.6495 1.23063C9.58321 1.23063 8.69801 1.59736 7.94339 2.35182C7.18893 3.10645 6.82203 3.99165 6.82203 5.05773C6.82203 6.12413 7.18893 7.00917 7.94339 7.76379C8.69801 8.51842 9.58321 8.88515 10.6495 8.88515C11.7155 8.88515 12.6006 8.51826 13.3554 7.76379C14.11 7.00933 14.4769 6.12413 14.4769 5.05773C14.4769 3.99165 14.11 3.10645 13.3554 2.35182Z" fill="#645C95"/>
<path d="M1.7994 16.1479C1.82776 15.7387 1.88512 15.2924 1.96955 14.821C2.05479 14.3461 2.16454 13.8972 2.29591 13.4869C2.43178 13.0628 2.61619 12.644 2.8445 12.2426C3.08114 11.8261 3.35928 11.4633 3.67138 11.1649C3.99774 10.8526 4.39732 10.6015 4.85939 10.4184C5.31985 10.2362 5.83015 10.144 6.37601 10.144C6.59038 10.144 6.7977 10.2319 7.19808 10.4926C7.4445 10.6533 7.73273 10.8391 8.05444 11.0447C8.32954 11.22 8.7022 11.3842 9.16251 11.5329C9.6116 11.6782 10.0676 11.7519 10.5178 11.7519C10.9677 11.7519 11.4237 11.6782 11.8731 11.5329C12.3329 11.3844 12.7057 11.2201 12.9803 11.0449C13.299 10.8412 13.5874 10.6554 13.8375 10.4924C14.2375 10.2318 14.4449 10.1438 14.6592 10.1438C15.2053 10.1438 15.7154 10.2362 16.1757 10.4186C16.6374 10.6014 17.0372 10.8524 17.3639 11.165C17.676 11.4637 17.9541 11.8262 18.1906 12.2426C18.4186 12.644 18.6031 13.0626 18.739 13.487C18.8702 13.8974 18.98 14.3461 19.0652 14.821C19.1498 15.2917 19.207 15.7383 19.2354 16.1484C19.2632 16.5494 19.2773 16.9668 19.2773 17.3885C19.2773 18.4847 18.9289 19.3721 18.2417 20.0266C17.563 20.6725 16.6652 20.9999 15.573 20.9999H5.46133C4.36945 20.9999 3.47159 20.6725 2.79275 20.0266C2.10542 19.3726 1.75694 18.4849 1.75694 17.3883C1.7571 16.9652 1.77136 16.5478 1.7994 16.1479ZM3.64126 19.135C4.08971 19.5618 4.68507 19.7693 5.46149 19.7693H15.573C16.3495 19.7693 16.9449 19.5618 17.3932 19.1352C17.833 18.7165 18.0467 18.145 18.0467 17.3885C18.0467 16.995 18.0337 16.6065 18.0078 16.2335C17.9825 15.8676 17.9307 15.4656 17.854 15.0384C17.7782 14.6166 17.6817 14.2207 17.567 13.8623C17.457 13.5186 17.3068 13.1783 17.1207 12.8505C16.943 12.5381 16.7385 12.27 16.513 12.0541C16.3019 11.852 16.036 11.6867 15.7226 11.5627C15.4328 11.448 15.107 11.3852 14.7534 11.3757C14.7104 11.3986 14.6336 11.4424 14.5093 11.5234C14.2563 11.6883 13.9647 11.8764 13.6423 12.0823C13.279 12.3139 12.8108 12.5232 12.2515 12.7037C11.6797 12.8886 11.0965 12.9825 10.5176 12.9825C9.93876 12.9825 9.35541 12.8886 8.78391 12.7039C8.22411 12.523 7.75612 12.3139 7.39227 12.0819C7.06238 11.8711 6.77895 11.6885 6.52597 11.5234C6.40164 11.4425 6.3249 11.3986 6.2818 11.3757C5.92804 11.3852 5.60232 11.448 5.31232 11.5627C4.9991 11.6867 4.73314 11.8522 4.52213 12.0541C4.29655 12.2699 4.09211 12.5379 3.91443 12.8507C3.7281 13.1783 3.57781 13.5188 3.4679 13.8621C3.35303 14.221 3.25642 14.6167 3.18079 15.0383C3.10421 15.4662 3.0523 15.8684 3.02699 16.2336V16.234C3.00087 16.6055 2.98773 16.9939 2.98757 17.3885C2.98773 18.1452 3.20146 18.7165 3.64126 19.135Z" fill="#645C95"/>
</svg>
