<svg width="21" height="15" viewBox="0 0 21 15" fill="none" xmlns="http://www.w3.org/2000/svg">
<path d="M10.5011 4.29532C8.9213 4.29532 7.63745 5.57917 7.63745 7.15895C7.63745 8.73874 8.9213 10.0226 10.5011 10.0226C12.0809 10.0226 13.3647 8.73874 13.3647 7.15895C13.3647 5.57917 12.0808 4.29532 10.5011 4.29532Z" fill="#5A5A5A"/>
<path d="M10.5 0C5.72726 0 1.65138 2.9686 0 7.15908C1.65138 11.3495 5.72726 14.3182 10.5 14.3182C15.2775 14.3182 19.3486 11.3495 21 7.15908C19.3486 2.9686 15.2775 0 10.5 0ZM10.5 11.9318C7.86546 11.9318 5.72726 9.79358 5.72726 7.15903C5.72726 4.52449 7.86546 2.38634 10.5 2.38634C13.1345 2.38634 15.2727 4.52454 15.2727 7.15908C15.2727 9.79362 13.1345 11.9318 10.5 11.9318Z" fill="#5A5A5A"/>
</svg>
